HIERARCHY
ROOT Hips
{
  OFFSET 1.44925e-005 102.336 -0.101585
  CHANNELS 6 Xposition Yposition Zposition Zrotation Xrotation Yrotation
  JOINT LeftUpLeg
  {
    OFFSET 8.9458 -8.66707 0.101652
    CHANNELS 3 Zrotation Xrotation Yrotation
    JOINT LeftLeg
    {
      OFFSET 0 -44.4227 1.3727
      CHANNELS 3 Zrotation Xrotation Yrotation
      JOINT LeftFoot
      {
        OFFSET -0.253549 -42.0924 -1.46059
        CHANNELS 3 Zrotation Xrotation Yrotation
        JOINT LeftToes
        {
          OFFSET -0.04 -4.41509 8.4991
          CHANNELS 3 Zrotation Xrotation Yrotation
          End Site
          {
            OFFSET 0.08 -0.047448 9.77979
          }
        }
      }
    }
  }
  JOINT Spine
  {
    OFFSET 0 11.8905 0
    CHANNELS 3 Zrotation Xrotation Yrotation
    JOINT Spine1
    {
      OFFSET 0 25.6574 0.127663
      CHANNELS 3 Zrotation Xrotation Yrotation
      JOINT RightShoulder
      {
        OFFSET -8.99 -0.362252 -0.22
        CHANNELS 3 Zrotation Xrotation Yrotation
        JOINT RightArm
        {
          OFFSET -10.2827 -0.00338 0.322123
          CHANNELS 3 Zrotation Xrotation Yrotation
          JOINT RightForeArm
          {
            OFFSET -26.364 0.099144 -1.42434
            CHANNELS 3 Zrotation Xrotation Yrotation
            JOINT RightHand
            {
              OFFSET -22.0324 0.085362 1.02216
              CHANNELS 3 Zrotation Xrotation Yrotation
              End Site
              {
                OFFSET -13.3284 -0.6 1.50291
              }
            }
          }
        }
      }
      JOINT LeftShoulder1
      {
        OFFSET 8.99 -0.362252 -0.22
        CHANNELS 3 Zrotation Xrotation Yrotation
        JOINT LeftArm
        {
          OFFSET 10.2827 -0.00337999 0.322123
          CHANNELS 3 Zrotation Xrotation Yrotation
          JOINT LeftForeArm
          {
            OFFSET 26.2597 0.099144 -1.42434
            CHANNELS 3 Zrotation Xrotation Yrotation
            JOINT LeftHand
            {
              OFFSET 22.0902 0.085362 1.02216
              CHANNELS 3 Zrotation Xrotation Yrotation
              End Site
              {
                OFFSET 13.419 -0.6 1.50291
              }
            }
          }
        }
      }
      JOINT Head
      {
        OFFSET 0 8.73416 0.011341
        CHANNELS 3 Zrotation Xrotation Yrotation
        End Site
        {
          OFFSET -0.29 12.7742 2.51395
        }
      }
    }
  }
  JOINT RightUpLeg
  {
    OFFSET -8.9458 -8.66707 0.101652
    CHANNELS 3 Zrotation Xrotation Yrotation
    JOINT RightLeg
    {
      OFFSET 0 -44.4227 1.3727
      CHANNELS 3 Zrotation Xrotation Yrotation
      JOINT RightFoot
      {
        OFFSET 0.253549 -42.0924 -1.46059
        CHANNELS 3 Zrotation Xrotation Yrotation
        JOINT RightToes
        {
          OFFSET 0.04 -4.41509 8.4991
          CHANNELS 3 Zrotation Xrotation Yrotation
          End Site
          {
            OFFSET -0.08 -0.137448 9.77979
          }
        }
      }
    }
  }
}
MOTION
Frames:	10
Frame Time:	0.0333333
48.9171 96.6485 2.14558 -8.34577 3.58728 -89.2913 1.79543 15.0084 3.9743 1.17348 43.2513 15.5717 -13.1545 -12.0989 -0.494952 -1.28258e-009 8.75246e-006 -1.47123e-008 9.14874 9.20166 -1.52586 -2.14224 2.22435 0.0706477 37.7409 1.77923 0.0533657 39.9994 -23.8414 8.35547 11.0291 45.3253 1.23821 -11.3997 9.27134 1.43419 -47.1818 3.66588 -3.26482 -25.4417 -15.9282 8.37023 -7.83151 40.6037 -9.55507 5.82328 9.61819 -0.917488 0.293644 -12.9493 -5.86317 6.00475 -17.9231 -6.93819 -0.835273 28.8455 -15.4554 -1.68406 -9.49174 -0.210148 0.0462048 0.000530889 0.662642 
45.822 96.665 1.64825 -8.51121 4.42045 -88.5302 3.34051 9.50537 2.04209 1.47032 54.0112 16.3322 -9.75136 -2.57563 0.43684 -1.28258e-009 8.75246e-006 -1.47123e-008 10.3849 9.69948 -2.01354 -1.87635 1.98123 -0.0211166 37.7075 1.77253 0.041218 40.8506 -23.6528 10.1964 10.6617 44.5024 2.03431 -11.5027 9.24894 1.61366 -47.1901 3.63771 -3.21175 -25.1076 -15.9136 11.0979 -8.62734 41.7462 -8.40294 5.82328 9.61819 -0.917488 0.271703 -13.1755 -5.94759 7.22819 -16.569 -6.88704 -0.826629 30.6728 -16.3726 -1.61331 -12.3029 -0.267361 0.0462048 0.000530889 0.662642 
42.9702 96.6954 1.2601 -8.83659 5.21233 -87.692 4.12956 3.86191 -0.298438 1.96765 63.2953 16.8079 -7.42517 2.58106 0.643698 -1.28258e-009 8.75246e-006 -1.47123e-008 12.0719 10.3969 -2.43358 -2.15783 1.88078 0.129183 37.6978 1.76759 0.0307835 41.3176 -22.4312 11.5086 9.50533 41.5287 4.79742 -11.4775 9.24059 1.72224 -47.1714 3.61944 -3.18068 -25.0619 -14.9345 12.6133 -9.05544 42.6574 -7.91055 5.82328 9.61819 -0.917488 0.34832 -13.5753 -6.53366 8.21274 -14.9513 -7.12715 -0.631861 31.8651 -17.0649 -0.743968 -14.4715 -0.261917 0.0462048 0.000530889 0.662642 
40.079 96.9725 0.92925 -9.30582 5.5304 -87.5062 4.07224 -0.956631 -1.71032 2.5814 69.7416 16.7066 -6.494 1.7331 0.507988 -1.28258e-009 8.75246e-006 -1.47123e-008 13.0387 10.953 -2.39341 -2.70686 1.94161 0.568352 37.5037 1.76324 0.0371474 41.3403 -19.2258 12.7985 8.32629 37.417 7.97087 -11.4936 9.23567 1.76529 -47.2047 3.61839 -3.17414 -25.1847 -14.4605 13.5254 -8.82478 43.0418 -8.1922 5.82328 9.61819 -0.917488 0.512806 -13.8479 -7.13541 8.65774 -12.393 -7.18347 -0.240861 31.754 -17.2275 0.129031 -16.2987 -0.220092 0.0462048 0.000530889 0.662642 
37.1527 97.4352 0.609862 -9.65862 5.34932 -87.7992 3.4812 -5.2656 -2.4912 3.0446 73.0852 15.7749 -5.80962 -2.09763 0.281056 -1.28258e-009 8.75246e-006 -1.47123e-008 12.9937 11.2388 -2.00725 -2.9505 2.01624 1.0708 37.1299 1.75576 0.0515887 41.0001 -14.8598 14.2061 7.24242 33.6841 10.8059 -11.6992 9.21099 1.89297 -47.1899 3.61836 -3.17596 -25.5287 -14.3972 14.2487 -8.11938 42.1227 -9.12887 5.82328 9.61819 -0.917488 0.620635 -13.6725 -7.50367 8.56786 -9.33682 -6.70984 0.532873 30.6533 -17.5956 0.554134 -17.869 -0.190165 0.0462048 0.000530889 0.662642 
34.287 97.932 0.310831 -9.75394 4.98072 -88.1719 2.58912 -9.43045 -3.49016 3.0363 73.5453 14.7858 -4.76279 -5.54431 0.106956 -1.28258e-009 8.75246e-006 -1.47123e-008 12.6262 11.3163 -1.56345 -3.03041 1.90438 1.51319 36.7471 1.74675 0.0635417 40.406 -10.3086 15.4488 6.14483 30.1681 13.4512 -11.9478 9.18089 2.04458 -47.0542 3.60713 -3.17456 -26.0643 -13.9485 14.6622 -7.33316 40.1343 -10.3759 5.82328 9.61819 -0.917488 0.561776 -13.065 -7.73387 8.22635 -6.4403 -5.73419 1.5919 29.1483 -18.4852 0.73253 -18.9757 -0.17366 0.0462048 0.000530889 0.662642 
31.4753 98.3789 0.0429031 -9.73326 4.47792 -88.4941 1.42379 -13.1093 -4.86173 2.63504 71.3424 14.943 -3.81904 -8.25129 0.0130559 -1.28258e-009 8.75246e-006 -1.47123e-008 12.1855 11.3717 -1.15477 -3.33627 1.55093 1.86036 36.4389 1.74174 0.0779615 39.7487 -6.06222 16.4076 5.23053 26.2576 15.9425 -11.9861 9.17753 2.05345 -46.8391 3.58852 -3.17217 -26.6758 -12.788 14.5768 -6.4801 37.9858 -11.8355 5.82328 9.61819 -0.917488 0.419761 -12.3486 -7.89713 7.68481 -3.68321 -5.05083 2.4552 27.4781 -18.9922 0.929752 -19.8663 -0.152105 0.0462048 0.000530889 0.662642 
28.7178 98.7391 -0.205656 -9.71669 3.79214 -88.8404 0.264894 -15.9305 -6.06192 2.16819 66.5957 15.9612 -4.00299 -10.8037 -0.0634885 -1.28258e-009 8.75246e-006 -1.47123e-008 11.5313 11.5332 -0.756944 -3.93222 1.08581 2.128 36.2058 1.74063 0.0968034 39.214 -2.60661 17.2285 4.68972 22.5635 18.0569 -11.8958 9.19275 1.95454 -46.6001 3.56951 -3.16944 -27.3082 -10.9608 14.0085 -5.47051 35.9051 -13.5343 5.82328 9.61819 -0.917488 0.36875 -11.8208 -7.97055 6.93408 -0.894049 -5.05333 2.90938 25.6939 -18.614 1.01636 -20.8317 -0.140553 0.0462048 0.000530889 0.662642 
26.032 99.0496 -0.439186 -9.60725 3.03179 -89.3896 -0.493035 -17.9904 -6.51886 1.73805 59.5206 16.5457 -5.02489 -12.0928 -0.138158 -1.28258e-009 8.75246e-006 -1.47123e-008 10.7531 11.7338 -0.302501 -4.77833 0.621333 2.41052 36.0766 1.7412 0.109367 38.8644 -0.29552 17.9848 4.36416 20.1517 19.6833 -11.9934 9.18993 1.91844 -46.4146 3.55532 -3.16703 -27.7949 -8.6942 13.0534 -4.52333 33.5931 -15.2366 5.82328 9.61819 -0.917488 0.439523 -11.5771 -7.98183 6.16575 1.79162 -5.27711 2.99685 23.8042 -17.7398 0.800181 -21.6375 -0.165643 0.0462048 0.000530889 0.662642 
23.4238 99.3248 -0.638247 -9.33265 2.37514 -90.0892 -0.752394 -19.3882 -6.31903 1.36223 50.5909 16.4309 -5.81836 -11.5412 -0.145259 -1.28258e-009 8.75246e-006 -1.47123e-008 10.0891 11.884 0.164105 -5.75987 0.223275 2.71604 36.0523 1.743 0.11284 38.6719 0.999778 18.6275 4.06628 19.2365 20.7949 -12.2845 9.16797 1.95433 -46.4086 3.55398 -3.1654 -27.8411 -6.57903 11.8044 -3.8752 31.2333 -16.6189 5.82328 9.61819 -0.917488 0.49103 -11.577 -7.94693 5.58712 4.20487 -5.37708 2.81141 21.8849 -16.8044 0.578921 -22.1302 -0.194073 0.0462048 0.000530889 0.662642 
